Coordinates
version=1
nRows=13
nColumns=40
inDegrees=yes

Units are S.I. units (second, meters, Newtons, ...)
If the header above contains a line with 'inDegrees', this indicates whether rotational values are in degrees (yes) or radians (no).

endheader
time	pelvis_tilt	pelvis_list	pelvis_rotation	pelvis_tx	pelvis_ty	pelvis_tz	hip_flexion_r	hip_adduction_r	hip_rotation_r	knee_angle_r	knee_angle_r_beta	ankle_angle_r	subtalar_angle_r	mtp_angle_r	hip_flexion_l	hip_adduction_l	hip_rotation_l	knee_angle_l	knee_angle_l_beta	ankle_angle_l	subtalar_angle_l	mtp_angle_l	lumbar_extension	lumbar_bending	lumbar_rotation	arm_flex_r	arm_add_r	arm_rot_r	elbow_flex_r	pro_sup_r	wrist_flex_r	wrist_dev_r	arm_flex_l	arm_add_l	arm_rot_l	elbow_flex_l	pro_sup_l	wrist_flex_l	wrist_dev_l
      4.30000000	      7.39880197	     -5.44778957	   -179.62510977	      0.40742546	      0.59840894	     -0.98655959	     77.90180065	    -49.75352621	      8.64159587	     67.06336167	      1.17047647	     -2.20839146	      0.00000000	      0.00000000	     64.79455064	    -49.17086234	    -16.06321294	     68.01142543	      1.18702330	     -2.19561511	      0.00000000	      0.00000000	    -57.83166712	     -1.04304142	     -2.75749247	     60.38865966	     -6.81368333	     26.48959185	      1.86141858	     79.47438302	      0.00000000	      0.00000000	     51.25882491	     -2.18711696	     27.51269904	      1.21234719	      5.85188253	      0.00000000	      0.00000000
      4.30500000	      7.13991911	     -5.28813635	   -179.60844326	      0.40738434	      0.59905140	     -0.98644055	     77.24509028	    -49.75573870	      8.25873743	     66.96286095	      1.16872240	     -2.00857390	      0.00000000	      0.00000000	     64.67965119	    -49.18518754	    -15.80392331	     67.98026184	      1.18647940	     -2.16950148	      0.00000000	      0.00000000	    -58.04269914	     -0.84248194	     -2.66907651	     60.40251604	     -6.71884053	     27.07825294	      1.82896196	     77.71828067	      0.00000000	      0.00000000	     51.32430029	     -2.18771613	     26.87570587	      1.19553965	      6.28959111	      0.00000000	      0.00000000
      4.31000000	      7.35888936	     -5.28791753	   -179.56412541	      0.40765688	      0.59842218	     -0.98632692	     77.65672977	    -49.73548037	      8.43409117	     67.07635307	      1.17070321	     -2.22737329	      0.00000000	      0.00000000	     65.10638250	    -49.11291371	    -15.54571314	     68.06970016	      1.18804039	     -2.29383117	      0.00000000	      0.00000000	    -57.68529918	     -0.78425515	     -2.61436938	     60.30043207	     -6.76777089	     27.03597727	      1.84723365	     77.56313787	      0.00000000	      0.00000000	     51.25552451	     -2.10703504	     26.84922477	      1.14621643	      6.46525422	      0.00000000	      0.00000000
      4.31500000	      7.07472997	     -5.37237345	   -179.60621009	      0.40749118	      0.59920954	     -0.98638632	     77.32621388	    -49.74402510	      8.50575235	     66.99679689	      1.16931469	     -2.12104436	      0.00000000	      0.00000000	     64.53696248	    -49.07873682	    -15.82983070	     67.97737208	      1.18642896	     -2.15263988	      0.00000000	      0.00000000	    -57.96189372	     -0.80440349	     -2.71607839	     60.39521208	     -6.64483722	     26.79361582	      1.79427837	     77.13487600	      0.00000000	      0.00000000	     51.27404053	     -2.17433612	     26.58961733	      1.20890261	      6.27110552	      0.00000000	      0.00000000
      4.32000000	      6.89518854	     -5.33587190	   -179.60631425	      0.40744472	      0.59976956	     -0.98640946	     76.97867884	    -49.74364367	      8.38402553	     66.95408386	      1.16856921	     -2.04345498	      0.00000000	      0.00000000	     64.33418562	    -49.05635011	    -15.79109975	     67.92599102	      1.18553219	     -2.21082265	      0.00000000	      0.00000000	    -58.11640446	     -0.72902531	     -2.62802127	     60.39382164	     -6.69785656	     26.57633104	      1.81521732	     77.31331084	      0.00000000	      0.00000000	     51.30560476	     -2.09064436	     26.53379452	      1.22317463	      5.92222468	      0.00000000	      0.00000000
      4.32500000	      6.79210782	     -5.34719130	   -179.60500046	      0.40739512	      0.60003359	     -0.98644328	     76.86663081	    -49.73839075	      8.42430832	     66.97241169	      1.16888909	     -2.02879298	      0.00000000	      0.00000000	     64.19275157	    -49.01838108	    -15.79068432	     67.90697521	      1.18520030	     -2.24576498	      0.00000000	      0.00000000	    -58.17006507	     -0.69660743	     -2.59800486	     60.36345688	     -6.70559018	     26.54831744	      1.82565794	     76.79074554	      0.00000000	      0.00000000	     51.30484423	     -2.05054400	     26.33921057	      1.23150990	      6.04376434	      0.00000000	      0.00000000
      4.33000000	      6.69063151	     -5.40868566	   -179.60489135	      0.40738085	      0.60033327	     -0.98644447	     76.83148122	    -49.73436220	      8.58924400	     66.98319652	      1.16907732	     -2.08931662	      0.00000000	      0.00000000	     64.00368754	    -48.95258038	    -15.86621271	     67.89496494	      1.18499068	     -2.26238379	      0.00000000	      0.00000000	    -58.23545182	     -0.69929230	     -2.62909987	     60.37779840	     -6.74389167	     26.67787888	      1.83353795	     76.99010597	      0.00000000	      0.00000000	     51.33786241	     -2.03948879	     26.26073047	      1.23706038	      5.88011759	      0.00000000	      0.00000000
      4.33500000	      6.89791787	     -5.39856305	   -179.56391723	      0.40760477	      0.59986994	     -0.98646546	     77.13652148	    -49.71658373	      8.64516394	     67.05186482	      1.17027581	     -2.18926174	      0.00000000	      0.00000000	     64.38130184	    -48.86560485	    -15.61218582	     67.93748043	      1.18573272	     -2.33144957	      0.00000000	      0.00000000	    -57.94081213	     -0.65433185	     -2.60521202	     60.34927212	     -6.70014829	     26.66041181	      1.78208647	     76.33030106	      0.00000000	      0.00000000	     51.27303459	     -1.99401843	     26.05443842	      1.18224150	      6.60147409	      0.00000000	      0.00000000
      4.34000000	      6.47046667	     -5.33499849	   -179.59650448	      0.40731406	      0.60110125	     -0.98666111	     76.39629192	    -49.72756516	      8.37652144	     66.98083469	      1.16903610	     -1.99705555	      0.00000000	      0.00000000	     63.78324008	    -48.90562757	    -15.73282412	     67.79236523	      1.18319998	     -2.34747402	      0.00000000	      0.00000000	    -58.42006561	     -0.56258991	     -2.60180943	     60.41333536	     -6.61496019	     27.23182423	      1.79913532	     74.77909053	      0.00000000	      0.00000000	     51.39373955	     -2.11029256	     25.33609438	      1.23469716	      6.91792888	      0.00000000	      0.00000000
      4.34500000	      6.58569485	     -5.36314711	   -179.58507016	      0.40741440	      0.60092575	     -0.98683884	     76.59560566	    -49.71654089	      8.45480540	     67.02791706	      1.16985784	     -2.05350177	      0.00000000	      0.00000000	     63.92028725	    -48.83308205	    -15.63330187	     67.77107858	      1.18282846	     -2.35134884	      0.00000000	      0.00000000	    -58.26692128	     -0.60001736	     -2.50598286	     60.45810817	     -6.85906302	     26.16633224	      1.82134463	     79.22853760	      0.00000000	      0.00000000	     51.32309710	     -1.93493333	     26.40224088	      1.27038908	      5.23376966	      0.00000000	      0.00000000
      4.35000000	      6.71372567	     -5.02520629	   -179.47053438	      0.40758587	      0.60069133	     -0.98676928	     76.28079709	    -49.70393689	      7.84799605	     67.07131818	      1.17061534	     -1.93232018	      0.00000000	      0.00000000	     64.65351437	    -48.78698904	    -14.72702603	     67.81628806	      1.18361751	     -2.27018782	      0.00000000	      0.00000000	    -58.09127044	     -0.23662864	     -2.50565345	     60.57127299	     -6.46591196	     27.06613089	      1.62679585	     76.82062985	      0.00000000	      0.00000000	     51.30421867	     -2.13571928	     25.27792156	      1.17903306	      6.47472026	      0.00000000	      0.00000000
      4.35500000	      6.23849264	     -5.10879839	   -179.55287851	      0.40725268	      0.60200851	     -0.98705724	     75.66886093	    -49.71622505	      7.80911225	     66.94951566	      1.16848948	     -1.85367011	      0.00000000	      0.00000000	     63.78485992	    -48.83693986	    -15.16150638	     67.66165731	      1.18091870	     -2.35895388	      0.00000000	      0.00000000	    -58.63806799	     -0.31715216	     -2.49576091	     60.56365046	     -6.50182181	     27.49236357	      1.72612992	     75.73202018	      0.00000000	      0.00000000	     51.50740315	     -2.09809474	     24.68757763	      1.20985619	      6.48642273	      0.00000000	      0.00000000
      4.36000000	      6.39675130	     -5.36492436	   -179.58744180	      0.40734498	      0.60176294	     -0.98735900	     76.28213814	    -49.70935364	      8.33757884	     67.01195291	      1.16957922	     -2.03105589	      0.00000000	      0.00000000	     63.63009510	    -48.71651855	    -15.53042243	     67.59547128	      1.17976353	     -2.47275316	      0.00000000	      0.00000000	    -58.44401920	     -0.54924021	     -2.49594068	     60.50742150	     -6.73370301	     26.44436141	      1.78687848	     77.73985620	      0.00000000	      0.00000000	     51.47982962	     -1.92190594	     25.79530937	      1.25330146	      5.11337361	      0.00000000	      0.00000000
